<svg width="13" height="15" viewBox="0 0 13 15" fill="none" xmlns="http://www.w3.org/2000/svg">
<path d="M6.21321 13.0474L9.63027 9.63027C11.5175 7.74311 11.5175 4.68332 9.63027 2.79612C7.74311 0.90891 4.68332 0.90891 2.79612 2.79612C0.90891 4.68332 0.90891 7.74311 2.79612 9.63027L6.21321 13.0474ZM6.21321 15L1.81981 10.6066C-0.606603 8.18017 -0.606603 4.24622 1.81981 1.81981C4.24622 -0.606603 8.18017 -0.606603 10.6066 1.81981C13.033 4.24622 13.033 8.18017 10.6066 10.6066L6.21321 15ZM6.21321 7.59392C6.97578 7.59392 7.59392 6.97578 7.59392 6.21321C7.59392 5.45066 6.97578 4.8325 6.21321 4.8325C5.45064 4.8325 4.8325 5.45066 4.8325 6.21321C4.8325 6.97578 5.45064 7.59392 6.21321 7.59392ZM6.21321 8.97464C4.68812 8.97464 3.45178 7.73828 3.45178 6.21321C3.45178 4.68812 4.68812 3.45178 6.21321 3.45178C7.73828 3.45178 8.97464 4.68812 8.97464 6.21321C8.97464 7.73828 7.73828 8.97464 6.21321 8.97464Z" fill="black"/>
</svg>
