<svg width="16" height="15" viewBox="0 0 16 15" fill="none" xmlns="http://www.w3.org/2000/svg">
<path d="M0.333984 2.25L5.58398 0L10.084 2.25L14.8112 0.224025C15.0017 0.14244 15.2221 0.230618 15.3037 0.420983C15.3236 0.467663 15.334 0.51792 15.334 0.568703V12.75L10.084 15L5.58398 12.75L0.856704 14.776C0.666339 14.8576 0.445892 14.7694 0.364307 14.579C0.344297 14.5324 0.333984 14.482 0.333984 14.4313V2.25ZM10.834 13.0466L13.834 11.7609V2.27481L10.834 3.56052V13.0466ZM9.33398 12.9479V3.55205L6.33398 2.05205V11.4479L9.33398 12.9479ZM4.83398 11.4394V1.95338L1.83398 3.23909V12.7252L4.83398 11.4394Z" fill="#1F2105"/>
</svg>
