<svg width="35" height="40" viewBox="0 0 35 40" fill="none" xmlns="http://www.w3.org/2000/svg">
<path d="M17.5938 33.473V34.5119C17.5938 35.614 17.156 36.671 16.3767 37.4503C15.5974 38.2296 14.5404 38.6674 13.4383 38.6674C12.3362 38.6674 11.2792 38.2296 10.4998 37.4503C9.72053 36.671 9.28271 35.614 9.28271 34.5119V33.473M24.5856 31.3582C22.9182 29.3174 21.741 28.2785 21.741 22.6523C21.741 17.5 19.11 15.6644 16.9445 14.7729C16.6569 14.6548 16.3861 14.3833 16.2985 14.0879C15.9186 12.7951 14.8538 11.6562 13.4383 11.6562C12.0228 11.6562 10.9573 12.7958 10.5813 14.0892C10.4937 14.3879 10.2229 14.6548 9.93526 14.7729C7.76723 15.6657 5.13883 17.4948 5.13883 22.6523C5.13558 28.2785 3.95839 29.3174 2.29097 31.3582C1.6001 32.2036 2.20526 33.473 3.41362 33.473H23.4694C24.6713 33.473 25.2726 32.1997 24.5856 31.3582Z" stroke="white" stroke-width="2.07778" stroke-linecap="round" stroke-linejoin="round"/>
<rect x="14.1914" y="0.65625" width="20.4121" height="20.0071" rx="10.0036" fill="#F20000"/>
<path d="M24.1115 14.8331C23.7153 14.8331 23.3515 14.7862 23.0201 14.6926C22.6887 14.6061 22.3681 14.4692 22.0583 14.2819V13.0284C22.2672 13.2157 22.523 13.367 22.8256 13.4823C23.1281 13.5975 23.4847 13.6552 23.8954 13.6552C24.3781 13.6552 24.7563 13.5507 25.0301 13.3418C25.3038 13.1329 25.4407 12.8519 25.4407 12.4989C25.4407 12.2035 25.329 11.9586 25.1057 11.764C24.8896 11.5695 24.5294 11.4723 24.0251 11.4723H22.5014L22.6743 10.4781H23.9386C24.3925 10.4781 24.7203 10.3844 24.922 10.1971C25.1237 10.0098 25.2246 9.76125 25.2246 9.45147C25.2246 9.1633 25.1093 8.93636 24.8788 8.77066C24.6554 8.60496 24.3204 8.52211 23.8738 8.52211C23.4631 8.52211 23.1065 8.58335 22.8039 8.70582C22.5086 8.82109 22.26 8.96878 22.0583 9.14889V7.89534C22.3753 7.70083 22.6995 7.55674 23.0309 7.46309C23.3695 7.36223 23.7405 7.3118 24.1439 7.3118C24.641 7.3118 25.0733 7.39465 25.4407 7.56034C25.8153 7.71884 26.0999 7.94217 26.2944 8.23034C26.4961 8.51851 26.597 8.84631 26.597 9.21373C26.597 9.5091 26.5321 9.77926 26.4025 10.0242C26.28 10.2692 26.0927 10.4637 25.8405 10.6078C25.5884 10.7518 25.2786 10.8239 24.9112 10.8239V10.705C25.3002 10.7122 25.6388 10.8023 25.927 10.9752C26.2224 11.1409 26.4457 11.3642 26.597 11.6452C26.7483 11.9189 26.8239 12.2215 26.8239 12.5529C26.8239 12.9852 26.7087 13.3742 26.4781 13.72C26.2548 14.0658 25.9378 14.3396 25.5272 14.5413C25.1165 14.7358 24.6446 14.8331 24.1115 14.8331Z" fill="white"/>
</svg>
